<?xml version="1.0" encoding="utf-8"?>
<!-- Generator: Adobe Illustrator 21.1.0, SVG Export Plug-In . SVG Version: 6.00 Build 0)  -->
<svg version="1.1" xmlns="http://www.w3.org/2000/svg" xmlns:xlink="http://www.w3.org/1999/xlink" x="0px" y="0px"
	 viewBox="0 0 235.3 25.3" style="enable-background:new 0 0 235.3 25.3;" xml:space="preserve">
<style type="text/css">
	.st0{display:none;}
	.st1{fill:#F16652;}
	.st2{fill:none;stroke:#F16652;stroke-width:3;stroke-linecap:round;stroke-linejoin:round;stroke-miterlimit:10;}
</style>
<g id="Image" class="st0">
</g>
<g id="Vector">
	<g>
		<path d="M0,0.7C0,0.3,0.3,0,0.7,0h14.9c0.4,0,0.7,0.3,0.7,0.7v3.9c0,0.4-0.3,0.7-0.7,0.7h-10v4.5h8.2c0.4,0,0.7,0.3,0.7,0.7v3.9
			c0,0.4-0.3,0.7-0.7,0.7H5.6v4.9h10c0.4,0,0.7,0.3,0.7,0.7v3.9c0,0.4-0.3,0.7-0.7,0.7H0.7c-0.4,0-0.7-0.3-0.7-0.7V0.7z"/>
		<path d="M25,0.6c0-0.3,0.4-0.6,0.6-0.6h0.6c0.2,0,0.5,0.1,0.6,0.4l8.4,15.2h0.1l8.4-15.2C43.7,0.1,44.1,0,44.2,0h0.6
			c0.3,0,0.6,0.3,0.6,0.6l4.1,23.8c0.1,0.5-0.3,0.8-0.7,0.8h-4.2c-0.3,0-0.6-0.3-0.7-0.6l-1.6-11.1h-0.1l-6.1,11.4
			c-0.1,0.2-0.4,0.4-0.6,0.4h-0.6c-0.2,0-0.5-0.2-0.6-0.4l-6.1-11.4h-0.1l-1.6,11.1c0,0.3-0.3,0.6-0.7,0.6h-4.2
			c-0.4,0-0.8-0.3-0.7-0.8L25,0.6z"/>
		<path d="M55.6,0.7c0-0.4,0.3-0.7,0.7-0.7h4.3c0.4,0,0.7,0.3,0.7,0.7v23.8c0,0.4-0.3,0.7-0.7,0.7h-4.3c-0.4,0-0.7-0.3-0.7-0.7V0.7z
			"/>
		<path d="M68.9,0.7c0-0.4,0.3-0.7,0.7-0.7h4.3c0.4,0,0.7,0.3,0.7,0.7v19.2h8.6c0.4,0,0.7,0.3,0.7,0.7v3.9c0,0.4-0.3,0.7-0.7,0.7
			H69.6c-0.4,0-0.7-0.3-0.7-0.7V0.7z"/>
		<path d="M91.7,13.1l-8-12c-0.3-0.5,0-1,0.6-1H89c0.3,0,0.5,0.2,0.6,0.3l5,7.4l5-7.4c0.1-0.1,0.3-0.3,0.6-0.3h4.7
			c0.6,0,0.9,0.6,0.6,1l-8.1,12v11.5c0,0.4-0.3,0.7-0.7,0.7h-4.3c-0.4,0-0.7-0.3-0.7-0.7V13.1z"/>
		<path d="M119.1,0.7c0-0.4,0.3-0.7,0.7-0.7h14.9c0.4,0,0.7,0.3,0.7,0.7v3.9c0,0.4-0.3,0.7-0.7,0.7h-10v5.2h8.2
			c0.4,0,0.7,0.3,0.7,0.7v3.9c0,0.4-0.3,0.7-0.7,0.7h-8.2v8.7c0,0.4-0.3,0.7-0.7,0.7h-4.2c-0.4,0-0.7-0.3-0.7-0.7V0.7z"/>
		<path d="M140.8,0.7c0-0.4,0.3-0.7,0.7-0.7h14.9c0.4,0,0.7,0.3,0.7,0.7v3.9c0,0.4-0.3,0.7-0.7,0.7h-10v4.5h8.2
			c0.4,0,0.7,0.3,0.7,0.7v3.9c0,0.4-0.3,0.7-0.7,0.7h-8.2v4.9h10c0.4,0,0.7,0.3,0.7,0.7v3.9c0,0.4-0.3,0.7-0.7,0.7h-14.9
			c-0.4,0-0.7-0.3-0.7-0.7V0.7z"/>
		<path d="M163.3,0.7c0-0.4,0.3-0.7,0.7-0.7h4.3c0.4,0,0.7,0.3,0.7,0.7v19.2h8.6c0.4,0,0.7,0.3,0.7,0.7v3.9c0,0.4-0.3,0.7-0.7,0.7
			H164c-0.4,0-0.7-0.3-0.7-0.7V0.7z"/>
		<path d="M183.2,0.7c0-0.4,0.3-0.7,0.7-0.7h4.3c0.4,0,0.7,0.3,0.7,0.7v23.8c0,0.4-0.3,0.7-0.7,0.7h-4.3c-0.4,0-0.7-0.3-0.7-0.7V0.7
			z"/>
		<path d="M196.5,0.7c0-0.4,0.3-0.7,0.7-0.7h8.7c4.4,0,8.1,3.6,8.1,8c0,4.5-3.6,8.1-8,8.1h-3.8v8.5c0,0.4-0.3,0.7-0.7,0.7h-4.2
			c-0.4,0-0.7-0.3-0.7-0.7V0.7z M205.5,10.8c1.5,0,2.8-1.2,2.8-2.8c0-1.5-1.3-2.7-2.8-2.7h-3.4v5.5H205.5z"/>
		<path d="M219,0.7c0-0.4,0.3-0.7,0.7-0.7h14.9c0.4,0,0.7,0.3,0.7,0.7v3.9c0,0.4-0.3,0.7-0.7,0.7h-10v4.5h8.2c0.4,0,0.7,0.3,0.7,0.7
			v3.9c0,0.4-0.3,0.7-0.7,0.7h-8.2v4.9h10c0.4,0,0.7,0.3,0.7,0.7v3.9c0,0.4-0.3,0.7-0.7,0.7h-14.9c-0.4,0-0.7-0.3-0.7-0.7V0.7z"/>
	</g>
</g>
</svg>
