<svg id="Layer_1" data-name="Layer 1" xmlns="http://www.w3.org/2000/svg" viewBox="0 0 512 512"><defs><style>.cls-1{fill:#f26652;}.cls-2{fill:#fff;}</style></defs><title>contact</title><circle class="cls-1" cx="256" cy="256.5" r="240.5"/><path class="cls-2" d="M409.43,170V343.16c-0.53,1.8-1,3.63-1.59,5.41-5,14.87-18.77,24.37-36,24.39q-115.29.11-230.58,0c-11.37,0-21.2-3.83-29-12.37-4.54-5-7-11-8.57-17.44V170c0.53-1.8,1-3.63,1.59-5.41,5-14.87,18.77-24.38,36-24.39q115.29-.11,230.58,0c11.37,0,21.2,3.83,29,12.37C405.41,157.58,407.88,163.57,409.43,170ZM135,197.68c-0.08,1.47-.15,2.16-0.15,2.85q0,67.76,0,135.52c0,3.7,1.11,5,4.74,5.56a25.61,25.61,0,0,0,3.87.15H337.79c11.24,0,22.49,0,33.73,0,5.44,0,6.83-1.47,6.83-6.9q0-66.57,0-133.13c0-1.14,0-2.27,0-4.21-1.64,1.34-2.63,2.11-3.59,2.92Q324.7,242.7,274.66,285a15.56,15.56,0,0,1-10.9,4c-4.67-.13-9.36-0.15-14,0a16.14,16.14,0,0,1-11.43-4.19Q188.19,242.37,138,200C137.17,199.37,136.33,198.73,135,197.68ZM256.6,257.85l101.69-86.16H154.9Z"/></svg>