<svg id="Layer_1" data-name="Layer 1" xmlns="http://www.w3.org/2000/svg" viewBox="0 0 512 512"><defs><style>.cls-1{fill:#c13584;}.cls-2{fill:#fff;}</style></defs><title>instagram</title><circle class="cls-1" cx="256" cy="256" r="240.5"/><path class="cls-2" d="M310.28,407.69H202a28,28,0,0,0-3.2-.43,145.38,145.38,0,0,1-28-3c-18.51-4.05-34.19-12.84-46.31-27.62-10.78-13.13-16.25-28.49-18.09-45.09a310.86,310.86,0,0,1-1.85-33.58c-0.07-33.68-.76-67.36.5-101a146.83,146.83,0,0,1,3-26.22c4.08-18.5,12.87-34.18,27.65-46.29,13.14-10.76,28.5-16.23,45.1-18.06,11.13-1.23,22.38-1.73,33.58-1.85,24.46-.28,48.92-0.14,73.39-0.12,14.33,0,28.65.22,42.92,1.81,11.65,1.3,22.86,4.27,33.2,9.83,20.24,10.88,33.09,27.7,39.17,49.78,2.81,10.2,3.85,20.64,4.22,31.17,0.06,1.67.31,3.34,0.47,5V310.24a22.69,22.69,0,0,0-.43,2.3c-0.62,7.47-1,15-1.89,22.4a82,82,0,0,1-9.22,29c-10.92,20.18-27.71,33-49.78,39.06-10.78,3-21.81,4-32.94,4.25A28.51,28.51,0,0,0,310.28,407.69ZM132.39,256h-0.28c0.18,16.53.26,33.07,0.58,49.6,0.17,9,.37,18,2,26.93,1.75,9.26,4.78,18,10.66,25.51,9.59,12.32,22.68,18.2,37.71,20a243.56,243.56,0,0,0,28.16,1.79c32.87,0.07,65.74-.2,98.6-0.4,9.53-.06,19-0.68,28.29-3.1,16.78-4.37,28.91-14.21,35.61-30.38a67.9,67.9,0,0,0,4.85-21c0.68-9.08,1-18.2,1.25-27.31,0.2-7.51.12-15,.1-22.55-0.09-22.85-.12-45.7-0.37-68.54-0.1-9-.38-18-2.05-26.93-1.42-7.53-3.67-14.78-7.81-21.3-8.67-13.66-21.52-20.77-37.12-23.59-10.6-1.92-21.34-2.12-32-2.24-27.46-.31-54.92-0.22-82.39-0.1-11.61,0-23.24.29-34.78,1.78-8.82,1.14-17.29,3.52-24.88,8.27-13.72,8.58-20.89,21.42-23.75,37-2,10.69-2,21.54-2.29,32.33C132.13,226.48,132.39,241.22,132.39,256Z"/><path class="cls-2" d="M334.37,256.2c-0.45,43.48-34.86,78.14-78.4,78a78.14,78.14,0,0,1,.2-156.28C299.67,178,334,212.69,334.37,256.2Zm-28.13,0c0.39-27.52-22.53-50.16-49.83-50.29a50.17,50.17,0,0,0-.55,100.34C283.52,306.41,306.51,283.63,306.24,256.23Z"/><path class="cls-2" d="M355.51,175.16A18.48,18.48,0,1,1,337,156.73,18.41,18.41,0,0,1,355.51,175.16Z"/></svg>