<svg id="Layer_1" data-name="Layer 1" xmlns="http://www.w3.org/2000/svg" viewBox="0 0 512 512"><defs><style>.cls-1{fill:#007bb6;}.cls-2{fill:#fff;}</style></defs><title>contact</title><circle class="cls-1" cx="256" cy="256.5" r="240.5"/><path class="cls-2" d="M122.63,142.87c1.15-4.8,2.44-9.54,5.53-13.56,7.08-9.18,16.8-12.46,27.93-12.23,9.8,0.2,18.41,3.4,24.63,11.38,11.89,15.25,7.2,42.16-18.19,47.15-10.61,2.09-20.79.76-29.53-6.31a27.56,27.56,0,0,1-9.9-17.2,9.56,9.56,0,0,0-.49-1.43v-7.81Z"/><path class="cls-2" d="M215,371.76V200.07h57v23.87c0.92-1.13,1.41-1.66,1.81-2.24,12.07-17.71,28.94-26,50.23-25.77,12.37,0.14,24.08,2.68,34.74,9.23,10.89,6.68,18.38,16.22,23.33,27.86,5.42,12.75,7.22,26.2,7.25,39.92,0.07,32.29,0,64.59,0,96.88,0,0.6-.07,1.19-0.12,2h-57.1c0-1.08,0-2.08,0-3.08,0-30.73,0-61.46-.14-92.19A48.27,48.27,0,0,0,327.81,256c-4.65-10-13.66-15.4-24.68-15-14.27.53-25.91,9.15-29.68,22.7-1.23,4.43-1.34,9.27-1.35,13.92-0.11,30.3-.06,60.59-0.06,90.89v3.24H215Z"/><path class="cls-2" d="M126.18,200.06H183V371.79c-0.9.05-1.66,0.14-2.42,0.14-17.27,0-34.54,0-51.81.05-2.16,0-2.77-.6-2.77-2.76q0.08-83.31,0-166.62C126,201.83,126.13,201.07,126.18,200.06Z"/></svg>